<svg xmlns="http://www.w3.org/2000/svg" width="720" height="420" viewBox="0 0 720 420" fill="none">
<defs>
<filter id="glow" x="-100%" y="-100%" width="300%" height="300%">
<feGaussianBlur stdDeviation="2.4" result="blur"/>
<feMerge><feMergeNode in="blur"/><feMergeNode in="SourceGraphic"/></feMerge>
</filter>
</defs>
<circle cx="340.7" cy="105.7" r="1.7" fill="#4A3F7A" opacity="0.40" filter="url(#glow)"/>
<circle cx="332.4" cy="160.4" r="2.0" fill="#4A3F7A" opacity="0.26" filter="url(#glow)"/>
<circle cx="487.3" cy="103.5" r="0.8" fill="#FFE8B7" opacity="0.28" filter="url(#glow)"/>
<circle cx="411.0" cy="226.9" r="0.5" fill="#FFE8B7" opacity="0.37" filter="url(#glow)"/>
<circle cx="476.6" cy="136.0" r="1.6" fill="#FF7CCB" opacity="0.37" filter="url(#glow)"/>
<circle cx="471.0" cy="142.4" r="0.8" fill="#243B73" opacity="0.22" filter="url(#glow)"/>
<circle cx="549.4" cy="86.3" r="1.3" fill="#FFD37E" opacity="0.09" filter="url(#glow)"/>
<circle cx="383.3" cy="200.7" r="1.9" fill="#243B73" opacity="0.37" filter="url(#glow)"/>
<circle cx="461.1" cy="45.0" r="1.6" fill="#FF7CCB" opacity="0.13" filter="url(#glow)"/>
<circle cx="262.5" cy="271.2" r="1.1" fill="#5E6DB3" opacity="0.43" filter="url(#glow)"/>
<circle cx="600.5" cy="33.6" r="0.6" fill="#FFB7C8" opacity="0.28" filter="url(#glow)"/>
<circle cx="488.5" cy="24.3" r="1.3" fill="#FFE8B7" opacity="0.22" filter="url(#glow)"/>
<circle cx="-27.0" cy="282.0" r="1.7" fill="#FF7CCB" opacity="0.45" filter="url(#glow)"/>
<circle cx="609.5" cy="95.7" r="1.5" fill="#5E6DB3" opacity="0.34" filter="url(#glow)"/>
<circle cx="558.5" cy="64.2" r="2.1" fill="#243B73" opacity="0.25" filter="url(#glow)"/>
<circle cx="294.6" cy="253.8" r="1.8" fill="#FF7CCB" opacity="0.16" filter="url(#glow)"/>
<circle cx="508.9" cy="27.1" r="0.6" fill="#5E6DB3" opacity="0.35" filter="url(#glow)"/>
<circle cx="181.1" cy="168.7" r="0.9" fill="#FFD37E" opacity="0.22" filter="url(#glow)"/>
<circle cx="618.1" cy="80.9" r="1.6" fill="#243B73" opacity="0.26" filter="url(#glow)"/>
<circle cx="427.9" cy="149.1" r="1.1" fill="#FFB7C8" opacity="0.39" filter="url(#glow)"/>
<circle cx="411.7" cy="123.0" r="1.6" fill="#FFB7C8" opacity="0.24" filter="url(#glow)"/>
<circle cx="272.1" cy="266.0" r="1.1" fill="#243B73" opacity="0.18" filter="url(#glow)"/>
<circle cx="618.6" cy="123.2" r="1.0" fill="#FFE8B7" opacity="0.37" filter="url(#glow)"/>
<circle cx="543.7" cy="108.1" r="0.5" fill="#FFE8B7" opacity="0.25" filter="url(#glow)"/>
<circle cx="537.1" cy="130.1" r="2.0" fill="#5E6DB3" opacity="0.20" filter="url(#glow)"/>
<circle cx="8.8" cy="331.7" r="1.5" fill="#FFD37E" opacity="0.19" filter="url(#glow)"/>
<circle cx="466.3" cy="124.6" r="1.3" fill="#FFD37E" opacity="0.26" filter="url(#glow)"/>
<circle cx="442.7" cy="84.2" r="1.1" fill="#FFE8B7" opacity="0.29" filter="url(#glow)"/>
<circle cx="463.8" cy="215.3" r="1.7" fill="#5E6DB3" opacity="0.22" filter="url(#glow)"/>
<circle cx="509.7" cy="17.9" r="0.8" fill="#5E6DB3" opacity="0.29" filter="url(#glow)"/>
<circle cx="366.4" cy="157.6" r="1.4" fill="#FF7CCB" opacity="0.40" filter="url(#glow)"/>
<circle cx="464.0" cy="128.6" r="0.5" fill="#4A3F7A" opacity="0.40" filter="url(#glow)"/>
<circle cx="197.4" cy="280.4" r="1.0" fill="#5E6DB3" opacity="0.15" filter="url(#glow)"/>
<circle cx="704.6" cy="47.1" r="1.9" fill="#FFE8B7" opacity="0.31" filter="url(#glow)"/>
<circle cx="640.9" cy="92.8" r="1.7" fill="#5E6DB3" opacity="0.18" filter="url(#glow)"/>
<circle cx="421.2" cy="207.5" r="1.0" fill="#FF7CCB" opacity="0.13" filter="url(#glow)"/>
<circle cx="470.3" cy="246.4" r="1.4" fill="#4A3F7A" opacity="0.14" filter="url(#glow)"/>
<circle cx="373.5" cy="221.7" r="0.6" fill="#5E6DB3" opacity="0.11" filter="url(#glow)"/>
<circle cx="665.0" cy="74.5" r="1.0" fill="#FFE8B7" opacity="0.28" filter="url(#glow)"/>
<circle cx="623.9" cy="109.8" r="0.5" fill="#5E6DB3" opacity="0.11" filter="url(#glow)"/>
<circle cx="482.2" cy="106.2" r="0.7" fill="#FFF4D6" opacity="0.35" filter="url(#glow)"/>
<circle cx="205.5" cy="304.1" r="1.1" fill="#FFF4D6" opacity="0.44" filter="url(#glow)"/>
<circle cx="271.7" cy="218.0" r="0.5" fill="#FF7CCB" opacity="0.13" filter="url(#glow)"/>
<circle cx="631.7" cy="39.4" r="1.8" fill="#FF7CCB" opacity="0.12" filter="url(#glow)"/>
<circle cx="124.1" cy="280.7" r="2.0" fill="#FFB7C8" opacity="0.13" filter="url(#glow)"/>
<circle cx="357.7" cy="220.8" r="1.2" fill="#FFF4D6" opacity="0.39" filter="url(#glow)"/>
<circle cx="484.1" cy="112.6" r="0.5" fill="#FFE8B7" opacity="0.39" filter="url(#glow)"/>
<circle cx="213.0" cy="390.1" r="0.7" fill="#FFD37E" opacity="0.24" filter="url(#glow)"/>
<circle cx="519.7" cy="51.6" r="0.7" fill="#FFF4D6" opacity="0.08" filter="url(#glow)"/>
<circle cx="376.3" cy="233.5" r="1.8" fill="#FFD37E" opacity="0.35" filter="url(#glow)"/>
<circle cx="642.7" cy="81.8" r="1.1" fill="#FFB7C8" opacity="0.16" filter="url(#glow)"/>
<circle cx="446.7" cy="120.1" r="2.1" fill="#4A3F7A" opacity="0.15" filter="url(#glow)"/>
<circle cx="610.8" cy="68.0" r="0.9" fill="#FFD37E" opacity="0.17" filter="url(#glow)"/>
<circle cx="614.0" cy="102.1" r="0.9" fill="#FFB7C8" opacity="0.13" filter="url(#glow)"/>
<circle cx="427.4" cy="110.3" r="1.0" fill="#243B73" opacity="0.20" filter="url(#glow)"/>
<circle cx="274.7" cy="207.0" r="1.5" fill="#FFD37E" opacity="0.09" filter="url(#glow)"/>
<circle cx="623.2" cy="49.5" r="1.6" fill="#FFD37E" opacity="0.35" filter="url(#glow)"/>
<circle cx="188.3" cy="242.8" r="0.9" fill="#FFF4D6" opacity="0.27" filter="url(#glow)"/>
<circle cx="309.5" cy="270.3" r="1.5" fill="#243B73" opacity="0.42" filter="url(#glow)"/>
<circle cx="186.4" cy="230.7" r="1.4" fill="#FF7CCB" opacity="0.21" filter="url(#glow)"/>
<circle cx="663.5" cy="92.0" r="1.8" fill="#243B73" opacity="0.22" filter="url(#glow)"/>
<circle cx="641.2" cy="41.5" r="0.7" fill="#FFF4D6" opacity="0.11" filter="url(#glow)"/>
<circle cx="373.7" cy="177.9" r="1.2" fill="#FFF4D6" opacity="0.10" filter="url(#glow)"/>
<circle cx="263.7" cy="277.3" r="1.2" fill="#FFF4D6" opacity="0.09" filter="url(#glow)"/>
<circle cx="51.0" cy="339.5" r="1.9" fill="#243B73" opacity="0.44" filter="url(#glow)"/>
<circle cx="647.2" cy="29.7" r="1.5" fill="#FFD37E" opacity="0.32" filter="url(#glow)"/>
<circle cx="368.7" cy="161.0" r="1.0" fill="#4A3F7A" opacity="0.25" filter="url(#glow)"/>
<circle cx="176.8" cy="314.8" r="1.6" fill="#FFB7C8" opacity="0.31" filter="url(#glow)"/>
<circle cx="638.0" cy="-56.3" r="0.5" fill="#4A3F7A" opacity="0.07" filter="url(#glow)"/>
<circle cx="97.9" cy="264.3" r="1.4" fill="#FFD37E" opacity="0.30" filter="url(#glow)"/>
<circle cx="211.3" cy="256.1" r="1.3" fill="#243B73" opacity="0.28" filter="url(#glow)"/>
<circle cx="436.6" cy="177.4" r="0.8" fill="#FFE8B7" opacity="0.09" filter="url(#glow)"/>
<circle cx="532.4" cy="102.4" r="2.1" fill="#FFF4D6" opacity="0.36" filter="url(#glow)"/>
<circle cx="362.0" cy="190.7" r="1.4" fill="#FF7CCB" opacity="0.34" filter="url(#glow)"/>
<circle cx="361.2" cy="280.6" r="2.1" fill="#FFD37E" opacity="0.27" filter="url(#glow)"/>
<circle cx="317.7" cy="0.6" r="1.3" fill="#FFB7C8" opacity="0.34" filter="url(#glow)"/>
<circle cx="531.0" cy="26.9" r="0.6" fill="#5E6DB3" opacity="0.34" filter="url(#glow)"/>
<circle cx="294.6" cy="144.5" r="1.3" fill="#FF7CCB" opacity="0.18" filter="url(#glow)"/>
<circle cx="493.8" cy="116.3" r="1.9" fill="#4A3F7A" opacity="0.34" filter="url(#glow)"/>
<circle cx="424.7" cy="100.4" r="1.3" fill="#FFE8B7" opacity="0.16" filter="url(#glow)"/>
<circle cx="164.4" cy="356.6" r="1.7" fill="#243B73" opacity="0.23" filter="url(#glow)"/>
<circle cx="221.6" cy="157.4" r="0.6" fill="#FFE8B7" opacity="0.27" filter="url(#glow)"/>
<circle cx="492.3" cy="94.4" r="0.5" fill="#FFB7C8" opacity="0.07" filter="url(#glow)"/>
<circle cx="121.9" cy="232.2" r="0.6" fill="#FFD37E" opacity="0.18" filter="url(#glow)"/>
<circle cx="484.6" cy="16.4" r="1.8" fill="#FF7CCB" opacity="0.16" filter="url(#glow)"/>
<circle cx="560.0" cy="17.4" r="1.5" fill="#243B73" opacity="0.30" filter="url(#glow)"/>
<circle cx="343.1" cy="215.4" r="0.9" fill="#243B73" opacity="0.19" filter="url(#glow)"/>
<circle cx="526.9" cy="104.1" r="1.2" fill="#5E6DB3" opacity="0.19" filter="url(#glow)"/>
<circle cx="615.1" cy="44.8" r="0.9" fill="#FFB7C8" opacity="0.09" filter="url(#glow)"/>
<circle cx="430.1" cy="199.8" r="0.5" fill="#FFF4D6" opacity="0.35" filter="url(#glow)"/>
<circle cx="590.9" cy="105.3" r="0.9" fill="#FFB7C8" opacity="0.31" filter="url(#glow)"/>
<circle cx="441.3" cy="51.9" r="0.9" fill="#FF7CCB" opacity="0.33" filter="url(#glow)"/>
<circle cx="77.2" cy="289.6" r="1.5" fill="#4A3F7A" opacity="0.32" filter="url(#glow)"/>
<circle cx="268.2" cy="292.0" r="0.6" fill="#FF7CCB" opacity="0.08" filter="url(#glow)"/>
<circle cx="378.6" cy="249.4" r="1.2" fill="#FFF4D6" opacity="0.11" filter="url(#glow)"/>
<circle cx="411.7" cy="137.7" r="1.9" fill="#FFB7C8" opacity="0.24" filter="url(#glow)"/>
<circle cx="396.4" cy="159.4" r="1.9" fill="#FFB7C8" opacity="0.10" filter="url(#glow)"/>
<circle cx="597.4" cy="85.4" r="1.7" fill="#FFF4D6" opacity="0.11" filter="url(#glow)"/>
<circle cx="374.4" cy="186.5" r="1.6" fill="#FFD37E" opacity="0.19" filter="url(#glow)"/>
<circle cx="640.6" cy="20.9" r="1.6" fill="#FFD37E" opacity="0.34" filter="url(#glow)"/>
<circle cx="382.0" cy="237.0" r="0.5" fill="#243B73" opacity="0.19" filter="url(#glow)"/>
<circle cx="397.0" cy="83.9" r="0.9" fill="#5E6DB3" opacity="0.18" filter="url(#glow)"/>
<circle cx="458.1" cy="130.6" r="1.4" fill="#5E6DB3" opacity="0.25" filter="url(#glow)"/>
<circle cx="306.9" cy="232.4" r="0.6" fill="#FF7CCB" opacity="0.18" filter="url(#glow)"/>
<circle cx="108.2" cy="384.2" r="0.9" fill="#FFF4D6" opacity="0.30" filter="url(#glow)"/>
<circle cx="381.1" cy="65.3" r="1.4" fill="#FFD37E" opacity="0.22" filter="url(#glow)"/>
<circle cx="480.9" cy="32.7" r="1.4" fill="#FFE8B7" opacity="0.23" filter="url(#glow)"/>
<circle cx="512.8" cy="88.9" r="0.6" fill="#4A3F7A" opacity="0.11" filter="url(#glow)"/>
<circle cx="408.6" cy="136.2" r="1.5" fill="#243B73" opacity="0.33" filter="url(#glow)"/>
<circle cx="340.7" cy="209.4" r="1.3" fill="#FFD37E" opacity="0.35" filter="url(#glow)"/>
<circle cx="372.9" cy="57.6" r="1.1" fill="#5E6DB3" opacity="0.14" filter="url(#glow)"/>
<circle cx="361.0" cy="140.5" r="2.0" fill="#FFB7C8" opacity="0.07" filter="url(#glow)"/>
<circle cx="516.7" cy="85.1" r="1.2" fill="#FF7CCB" opacity="0.25" filter="url(#glow)"/>
<circle cx="232.8" cy="225.8" r="1.5" fill="#FFD37E" opacity="0.25" filter="url(#glow)"/>
<circle cx="166.6" cy="185.5" r="1.6" fill="#5E6DB3" opacity="0.13" filter="url(#glow)"/>
<circle cx="613.4" cy="23.5" r="1.5" fill="#4A3F7A" opacity="0.19" filter="url(#glow)"/>
<circle cx="283.2" cy="242.7" r="1.2" fill="#FFD37E" opacity="0.40" filter="url(#glow)"/>
<circle cx="230.2" cy="234.0" r="1.1" fill="#243B73" opacity="0.18" filter="url(#glow)"/>
<circle cx="252.5" cy="171.0" r="1.8" fill="#FFB7C8" opacity="0.19" filter="url(#glow)"/>
<circle cx="484.5" cy="111.5" r="1.6" fill="#FF7CCB" opacity="0.36" filter="url(#glow)"/>
<circle cx="561.0" cy="6.1" r="0.5" fill="#FFE8B7" opacity="0.20" filter="url(#glow)"/>
<circle cx="445.3" cy="164.2" r="1.9" fill="#4A3F7A" opacity="0.10" filter="url(#glow)"/>
<circle cx="347.6" cy="200.7" r="1.4" fill="#FFF4D6" opacity="0.22" filter="url(#glow)"/>
<circle cx="302.5" cy="159.6" r="1.8" fill="#FFD37E" opacity="0.36" filter="url(#glow)"/>
<circle cx="496.8" cy="123.1" r="0.9" fill="#FFF4D6" opacity="0.39" filter="url(#glow)"/>
<circle cx="519.2" cy="92.0" r="0.7" fill="#243B73" opacity="0.32" filter="url(#glow)"/>
<circle cx="597.4" cy="74.8" r="0.8" fill="#243B73" opacity="0.32" filter="url(#glow)"/>
<circle cx="131.3" cy="320.7" r="0.5" fill="#FF7CCB" opacity="0.45" filter="url(#glow)"/>
<circle cx="282.6" cy="204.0" r="1.0" fill="#FFB7C8" opacity="0.19" filter="url(#glow)"/>
<circle cx="138.6" cy="365.4" r="1.6" fill="#243B73" opacity="0.27" filter="url(#glow)"/>
<circle cx="503.9" cy="156.9" r="1.9" fill="#FFF4D6" opacity="0.35" filter="url(#glow)"/>
<circle cx="306.1" cy="238.9" r="1.1" fill="#243B73" opacity="0.13" filter="url(#glow)"/>
<circle cx="198.0" cy="347.6" r="1.3" fill="#4A3F7A" opacity="0.36" filter="url(#glow)"/>
<circle cx="280.4" cy="284.0" r="1.0" fill="#4A3F7A" opacity="0.24" filter="url(#glow)"/>
<circle cx="592.6" cy="23.7" r="1.0" fill="#FFD37E" opacity="0.13" filter="url(#glow)"/>
<circle cx="354.6" cy="232.2" r="1.8" fill="#FFF4D6" opacity="0.18" filter="url(#glow)"/>
<circle cx="432.3" cy="-12.3" r="2.1" fill="#FFE8B7" opacity="0.21" filter="url(#glow)"/>
<circle cx="308.1" cy="168.9" r="1.7" fill="#FFE8B7" opacity="0.32" filter="url(#glow)"/>
<circle cx="420.4" cy="295.9" r="2.0" fill="#5E6DB3" opacity="0.29" filter="url(#glow)"/>
<circle cx="152.1" cy="313.2" r="1.4" fill="#5E6DB3" opacity="0.40" filter="url(#glow)"/>
<circle cx="226.0" cy="330.0" r="1.9" fill="#FFD37E" opacity="0.13" filter="url(#glow)"/>
<circle cx="267.1" cy="291.2" r="1.1" fill="#FF7CCB" opacity="0.22" filter="url(#glow)"/>
<circle cx="190.5" cy="282.9" r="1.7" fill="#4A3F7A" opacity="0.36" filter="url(#glow)"/>
<circle cx="648.1" cy="33.8" r="1.4" fill="#243B73" opacity="0.35" filter="url(#glow)"/>
<circle cx="616.4" cy="-15.9" r="0.7" fill="#FFE8B7" opacity="0.16" filter="url(#glow)"/>
<circle cx="71.5" cy="327.2" r="0.8" fill="#FFD37E" opacity="0.33" filter="url(#glow)"/>
<circle cx="569.9" cy="58.6" r="1.3" fill="#5E6DB3" opacity="0.30" filter="url(#glow)"/>
<circle cx="440.6" cy="153.8" r="1.5" fill="#FFE8B7" opacity="0.27" filter="url(#glow)"/>
<circle cx="311.2" cy="213.5" r="1.1" fill="#5E6DB3" opacity="0.28" filter="url(#glow)"/>
<circle cx="664.4" cy="71.7" r="1.3" fill="#4A3F7A" opacity="0.38" filter="url(#glow)"/>
<circle cx="200.5" cy="349.0" r="1.6" fill="#FFD37E" opacity="0.40" filter="url(#glow)"/>
<circle cx="704.8" cy="76.0" r="1.1" fill="#FFE8B7" opacity="0.08" filter="url(#glow)"/>
<circle cx="647.0" cy="85.9" r="1.3" fill="#FFF4D6" opacity="0.22" filter="url(#glow)"/>
<circle cx="356.7" cy="213.6" r="1.7" fill="#5E6DB3" opacity="0.31" filter="url(#glow)"/>
<circle cx="517.2" cy="118.4" r="0.7" fill="#FF7CCB" opacity="0.13" filter="url(#glow)"/>
<circle cx="417.4" cy="31.1" r="0.6" fill="#FFB7C8" opacity="0.25" filter="url(#glow)"/>
<circle cx="572.8" cy="57.2" r="1.8" fill="#4A3F7A" opacity="0.08" filter="url(#glow)"/>
<circle cx="646.0" cy="89.3" r="0.7" fill="#FFF4D6" opacity="0.17" filter="url(#glow)"/>
<circle cx="539.4" cy="144.7" r="0.9" fill="#243B73" opacity="0.35" filter="url(#glow)"/>
<circle cx="637.6" cy="10.3" r="1.1" fill="#FFF4D6" opacity="0.13" filter="url(#glow)"/>
<circle cx="282.1" cy="234.2" r="1.5" fill="#5E6DB3" opacity="0.18" filter="url(#glow)"/>
<circle cx="135.1" cy="287.0" r="1.7" fill="#FFB7C8" opacity="0.41" filter="url(#glow)"/>
<circle cx="547.2" cy="16.0" r="0.9" fill="#FFF4D6" opacity="0.12" filter="url(#glow)"/>
<circle cx="226.1" cy="296.6" r="1.9" fill="#243B73" opacity="0.22" filter="url(#glow)"/>
<circle cx="369.0" cy="190.2" r="0.7" fill="#243B73" opacity="0.07" filter="url(#glow)"/>
<circle cx="153.7" cy="169.4" r="1.2" fill="#5E6DB3" opacity="0.25" filter="url(#glow)"/>
<circle cx="284.8" cy="292.6" r="1.9" fill="#4A3F7A" opacity="0.26" filter="url(#glow)"/>
<circle cx="427.7" cy="166.5" r="1.5" fill="#FFD37E" opacity="0.11" filter="url(#glow)"/>
<circle cx="348.4" cy="124.1" r="0.7" fill="#5E6DB3" opacity="0.20" filter="url(#glow)"/>
<circle cx="251.6" cy="107.3" r="0.8" fill="#4A3F7A" opacity="0.25" filter="url(#glow)"/>
<circle cx="380.1" cy="273.0" r="1.7" fill="#FFB7C8" opacity="0.25" filter="url(#glow)"/>
<circle cx="296.6" cy="184.2" r="1.8" fill="#5E6DB3" opacity="0.42" filter="url(#glow)"/>
<circle cx="132.1" cy="253.0" r="2.1" fill="#5E6DB3" opacity="0.13" filter="url(#glow)"/>
<circle cx="432.9" cy="173.5" r="1.8" fill="#FFB7C8" opacity="0.30" filter="url(#glow)"/>
<circle cx="358.6" cy="106.3" r="1.3" fill="#FFF4D6" opacity="0.37" filter="url(#glow)"/>
<circle cx="159.1" cy="398.6" r="2.1" fill="#5E6DB3" opacity="0.36" filter="url(#glow)"/>
<circle cx="333.1" cy="261.9" r="0.9" fill="#4A3F7A" opacity="0.27" filter="url(#glow)"/>
<circle cx="641.0" cy="169.0" r="1.5" fill="#243B73" opacity="0.38" filter="url(#glow)"/>
<circle cx="528.9" cy="47.5" r="1.1" fill="#FF7CCB" opacity="0.25" filter="url(#glow)"/>
<circle cx="285.0" cy="211.8" r="1.2" fill="#5E6DB3" opacity="0.15" filter="url(#glow)"/>
<circle cx="269.1" cy="158.0" r="1.8" fill="#FFE8B7" opacity="0.36" filter="url(#glow)"/>
<circle cx="567.3" cy="77.5" r="0.7" fill="#FFD37E" opacity="0.19" filter="url(#glow)"/>
<circle cx="541.4" cy="186.4" r="0.9" fill="#FFB7C8" opacity="0.22" filter="url(#glow)"/>
<circle cx="516.0" cy="163.8" r="1.6" fill="#5E6DB3" opacity="0.13" filter="url(#glow)"/>
<circle cx="509.7" cy="38.5" r="1.3" fill="#FFF4D6" opacity="0.32" filter="url(#glow)"/>
<circle cx="57.5" cy="341.2" r="1.2" fill="#FFD37E" opacity="0.44" filter="url(#glow)"/>
<circle cx="724.4" cy="69.9" r="1.6" fill="#FF7CCB" opacity="0.32" filter="url(#glow)"/>
<circle cx="265.9" cy="308.6" r="2.1" fill="#FFE8B7" opacity="0.28" filter="url(#glow)"/>
<circle cx="389.4" cy="174.2" r="1.5" fill="#4A3F7A" opacity="0.33" filter="url(#glow)"/>
<circle cx="463.1" cy="105.6" r="1.0" fill="#5E6DB3" opacity="0.33" filter="url(#glow)"/>
<circle cx="490.1" cy="123.3" r="0.5" fill="#FFD37E" opacity="0.31" filter="url(#glow)"/>
<circle cx="722.8" cy="82.2" r="1.8" fill="#5E6DB3" opacity="0.20" filter="url(#glow)"/>
<circle cx="585.1" cy="51.3" r="1.9" fill="#FFB7C8" opacity="0.12" filter="url(#glow)"/>
<circle cx="656.1" cy="2.4" r="1.4" fill="#FFD37E" opacity="0.22" filter="url(#glow)"/>
<circle cx="179.7" cy="288.4" r="2.0" fill="#FFE8B7" opacity="0.32" filter="url(#glow)"/>
<circle cx="380.1" cy="123.7" r="1.8" fill="#FFF4D6" opacity="0.17" filter="url(#glow)"/>
<circle cx="387.7" cy="162.8" r="1.9" fill="#FFB7C8" opacity="0.38" filter="url(#glow)"/>
<circle cx="161.4" cy="294.5" r="2.0" fill="#FFF4D6" opacity="0.34" filter="url(#glow)"/>
<circle cx="510.6" cy="128.8" r="1.1" fill="#FF7CCB" opacity="0.18" filter="url(#glow)"/>
<circle cx="226.1" cy="283.2" r="0.8" fill="#FFB7C8" opacity="0.10" filter="url(#glow)"/>
<circle cx="60.2" cy="272.7" r="2.0" fill="#FFB7C8" opacity="0.22" filter="url(#glow)"/>
<circle cx="404.9" cy="165.6" r="0.6" fill="#5E6DB3" opacity="0.08" filter="url(#glow)"/>
<circle cx="706.2" cy="98.1" r="1.9" fill="#243B73" opacity="0.34" filter="url(#glow)"/>
<circle cx="569.1" cy="-16.2" r="2.1" fill="#FFE8B7" opacity="0.29" filter="url(#glow)"/>
<circle cx="169.8" cy="309.5" r="1.8" fill="#FFB7C8" opacity="0.35" filter="url(#glow)"/>
<circle cx="609.7" cy="50.9" r="0.8" fill="#FFD37E" opacity="0.36" filter="url(#glow)"/>
<circle cx="608.7" cy="134.9" r="1.4" fill="#FFB7C8" opacity="0.27" filter="url(#glow)"/>
<circle cx="232.7" cy="370.5" r="1.0" fill="#243B73" opacity="0.40" filter="url(#glow)"/>
<circle cx="353.4" cy="174.0" r="1.5" fill="#5E6DB3" opacity="0.27" filter="url(#glow)"/>
<circle cx="671.9" cy="138.1" r="0.8" fill="#FFE8B7" opacity="0.39" filter="url(#glow)"/>
<circle cx="629.4" cy="20.1" r="0.5" fill="#FFD37E" opacity="0.34" filter="url(#glow)"/>
<circle cx="144.5" cy="381.8" r="1.3" fill="#5E6DB3" opacity="0.39" filter="url(#glow)"/>
<circle cx="280.4" cy="247.6" r="0.6" fill="#FFF4D6" opacity="0.42" filter="url(#glow)"/>
<circle cx="173.7" cy="276.2" r="1.9" fill="#FFB7C8" opacity="0.26" filter="url(#glow)"/>
<circle cx="169.7" cy="333.9" r="1.3" fill="#FFE8B7" opacity="0.15" filter="url(#glow)"/>
<circle cx="121.6" cy="302.0" r="1.2" fill="#FFD37E" opacity="0.11" filter="url(#glow)"/>
<circle cx="414.9" cy="156.0" r="1.8" fill="#243B73" opacity="0.34" filter="url(#glow)"/>
<circle cx="450.7" cy="180.9" r="0.6" fill="#4A3F7A" opacity="0.17" filter="url(#glow)"/>
<circle cx="66.8" cy="283.4" r="0.7" fill="#5E6DB3" opacity="0.25" filter="url(#glow)"/>
<circle cx="328.2" cy="126.2" r="1.3" fill="#4A3F7A" opacity="0.18" filter="url(#glow)"/>
<circle cx="518.5" cy="133.8" r="1.0" fill="#FFE8B7" opacity="0.30" filter="url(#glow)"/>
<circle cx="537.5" cy="62.2" r="1.3" fill="#243B73" opacity="0.16" filter="url(#glow)"/>
<circle cx="259.7" cy="209.8" r="1.4" fill="#5E6DB3" opacity="0.15" filter="url(#glow)"/>
<circle cx="252.4" cy="189.2" r="1.3" fill="#FFF4D6" opacity="0.37" filter="url(#glow)"/>
<circle cx="351.6" cy="148.1" r="1.8" fill="#243B73" opacity="0.39" filter="url(#glow)"/>
<circle cx="493.0" cy="27.0" r="1.4" fill="#4A3F7A" opacity="0.33" filter="url(#glow)"/>
<circle cx="210.1" cy="206.4" r="0.8" fill="#243B73" opacity="0.22" filter="url(#glow)"/>
<circle cx="265.3" cy="195.6" r="1.4" fill="#FF7CCB" opacity="0.44" filter="url(#glow)"/>
<circle cx="498.3" cy="49.9" r="1.2" fill="#FFE8B7" opacity="0.19" filter="url(#glow)"/>
<circle cx="239.4" cy="193.7" r="1.5" fill="#FFD37E" opacity="0.22" filter="url(#glow)"/>
<circle cx="189.8" cy="332.5" r="2.0" fill="#FFB7C8" opacity="0.15" filter="url(#glow)"/>
<circle cx="379.2" cy="169.2" r="1.0" fill="#FFD37E" opacity="0.19" filter="url(#glow)"/>
<circle cx="305.6" cy="154.1" r="1.2" fill="#FF7CCB" opacity="0.35" filter="url(#glow)"/>
<circle cx="376.6" cy="185.5" r="1.0" fill="#FFD37E" opacity="0.37" filter="url(#glow)"/>
<circle cx="586.2" cy="-10.1" r="1.1" fill="#243B73" opacity="0.31" filter="url(#glow)"/>
<circle cx="239.1" cy="235.8" r="1.2" fill="#FF7CCB" opacity="0.34" filter="url(#glow)"/>
<circle cx="593.5" cy="142.9" r="1.2" fill="#FF7CCB" opacity="0.22" filter="url(#glow)"/>
<circle cx="569.0" cy="119.5" r="1.6" fill="#FFB7C8" opacity="0.41" filter="url(#glow)"/>
<circle cx="237.6" cy="204.1" r="1.6" fill="#FFB7C8" opacity="0.11" filter="url(#glow)"/>
<circle cx="125.5" cy="359.1" r="1.7" fill="#FFD37E" opacity="0.14" filter="url(#glow)"/>
<circle cx="450.1" cy="44.2" r="0.9" fill="#FFB7C8" opacity="0.18" filter="url(#glow)"/>
<circle cx="637.2" cy="14.0" r="1.8" fill="#4A3F7A" opacity="0.13" filter="url(#glow)"/>
<circle cx="287.0" cy="165.1" r="1.1" fill="#FF7CCB" opacity="0.40" filter="url(#glow)"/>
<circle cx="288.3" cy="123.3" r="1.0" fill="#FFD37E" opacity="0.24" filter="url(#glow)"/>
<circle cx="112.5" cy="310.7" r="1.5" fill="#FFD37E" opacity="0.25" filter="url(#glow)"/>
<circle cx="397.6" cy="170.6" r="1.1" fill="#FFD37E" opacity="0.33" filter="url(#glow)"/>
<circle cx="464.2" cy="29.5" r="1.7" fill="#4A3F7A" opacity="0.10" filter="url(#glow)"/>
<circle cx="663.1" cy="36.7" r="0.9" fill="#4A3F7A" opacity="0.09" filter="url(#glow)"/>
<circle cx="562.0" cy="46.5" r="1.6" fill="#5E6DB3" opacity="0.22" filter="url(#glow)"/>
<circle cx="119.2" cy="312.8" r="1.7" fill="#243B73" opacity="0.36" filter="url(#glow)"/>
<circle cx="545.3" cy="76.4" r="1.1" fill="#FFE8B7" opacity="0.21" filter="url(#glow)"/>
<circle cx="655.7" cy="113.2" r="1.2" fill="#4A3F7A" opacity="0.36" filter="url(#glow)"/>
<circle cx="323.4" cy="209.3" r="1.2" fill="#FFB7C8" opacity="0.38" filter="url(#glow)"/>
<circle cx="475.9" cy="61.7" r="0.8" fill="#FFE8B7" opacity="0.17" filter="url(#glow)"/>
<circle cx="575.5" cy="3.9" r="1.2" fill="#FFE8B7" opacity="0.11" filter="url(#glow)"/>
<circle cx="525.3" cy="93.1" r="1.1" fill="#FFF4D6" opacity="0.37" filter="url(#glow)"/>
<circle cx="363.0" cy="263.4" r="0.5" fill="#FFE8B7" opacity="0.28" filter="url(#glow)"/>
<circle cx="503.9" cy="162.7" r="1.6" fill="#FF7CCB" opacity="0.27" filter="url(#glow)"/>
<circle cx="345.0" cy="121.4" r="0.8" fill="#FF7CCB" opacity="0.22" filter="url(#glow)"/>
<circle cx="491.3" cy="47.9" r="1.4" fill="#FFE8B7" opacity="0.24" filter="url(#glow)"/>
<circle cx="360.4" cy="157.0" r="0.9" fill="#FFD37E" opacity="0.12" filter="url(#glow)"/>
<circle cx="529.8" cy="75.0" r="2.0" fill="#243B73" opacity="0.37" filter="url(#glow)"/>
<circle cx="65.6" cy="342.1" r="0.6" fill="#5E6DB3" opacity="0.23" filter="url(#glow)"/>
<circle cx="179.7" cy="361.4" r="1.7" fill="#5E6DB3" opacity="0.14" filter="url(#glow)"/>
<circle cx="356.3" cy="181.7" r="1.8" fill="#FF7CCB" opacity="0.39" filter="url(#glow)"/>
<circle cx="246.1" cy="269.2" r="2.0" fill="#4A3F7A" opacity="0.20" filter="url(#glow)"/>
<circle cx="479.6" cy="125.5" r="1.4" fill="#FFD37E" opacity="0.24" filter="url(#glow)"/>
<circle cx="522.3" cy="1.7" r="1.0" fill="#FFF4D6" opacity="0.10" filter="url(#glow)"/>
<circle cx="375.5" cy="184.1" r="0.9" fill="#FF7CCB" opacity="0.22" filter="url(#glow)"/>
<circle cx="247.1" cy="295.5" r="1.9" fill="#FFB7C8" opacity="0.38" filter="url(#glow)"/>
<circle cx="562.3" cy="-0.9" r="1.8" fill="#FF7CCB" opacity="0.32" filter="url(#glow)"/>
<circle cx="351.1" cy="277.7" r="1.9" fill="#5E6DB3" opacity="0.13" filter="url(#glow)"/>
<circle cx="395.9" cy="165.7" r="1.7" fill="#5E6DB3" opacity="0.19" filter="url(#glow)"/>
<circle cx="419.6" cy="71.1" r="1.1" fill="#FFE8B7" opacity="0.27" filter="url(#glow)"/>
<circle cx="62.1" cy="347.7" r="1.7" fill="#243B73" opacity="0.45" filter="url(#glow)"/>
<circle cx="501.1" cy="202.9" r="1.4" fill="#FFB7C8" opacity="0.14" filter="url(#glow)"/>
<circle cx="282.8" cy="194.3" r="1.3" fill="#4A3F7A" opacity="0.08" filter="url(#glow)"/>
<circle cx="180.6" cy="215.8" r="1.5" fill="#FFB7C8" opacity="0.13" filter="url(#glow)"/>
<circle cx="405.6" cy="153.4" r="2.0" fill="#FF7CCB" opacity="0.19" filter="url(#glow)"/>
<circle cx="453.2" cy="87.4" r="1.2" fill="#FFB7C8" opacity="0.35" filter="url(#glow)"/>
<circle cx="603.8" cy="127.0" r="1.8" fill="#FFE8B7" opacity="0.19" filter="url(#glow)"/>
<circle cx="501.8" cy="93.4" r="1.6" fill="#FFD37E" opacity="0.40" filter="url(#glow)"/>
<circle cx="776.2" cy="43.7" r="0.9" fill="#FFE8B7" opacity="0.21" filter="url(#glow)"/>
<circle cx="220.2" cy="247.2" r="2.1" fill="#FFE8B7" opacity="0.08" filter="url(#glow)"/>
<circle cx="137.3" cy="246.7" r="1.5" fill="#243B73" opacity="0.21" filter="url(#glow)"/>
<circle cx="610.2" cy="31.6" r="1.8" fill="#FFE8B7" opacity="0.21" filter="url(#glow)"/>
<circle cx="745.6" cy="4.6" r="0.5" fill="#FFF4D6" opacity="0.20" filter="url(#glow)"/>
<circle cx="128.1" cy="318.4" r="1.8" fill="#FFD37E" opacity="0.22" filter="url(#glow)"/>
<circle cx="477.1" cy="118.4" r="1.4" fill="#5E6DB3" opacity="0.32" filter="url(#glow)"/>
<circle cx="377.5" cy="105.7" r="1.8" fill="#FFE8B7" opacity="0.28" filter="url(#glow)"/>
<circle cx="284.9" cy="261.8" r="0.6" fill="#FFB7C8" opacity="0.25" filter="url(#glow)"/>
<circle cx="519.4" cy="135.5" r="1.8" fill="#FFB7C8" opacity="0.18" filter="url(#glow)"/>
<circle cx="366.5" cy="160.8" r="1.5" fill="#FFB7C8" opacity="0.17" filter="url(#glow)"/>
<circle cx="108.0" cy="300.8" r="0.7" fill="#4A3F7A" opacity="0.35" filter="url(#glow)"/>
<circle cx="191.7" cy="200.5" r="0.6" fill="#FFB7C8" opacity="0.18" filter="url(#glow)"/>
<circle cx="185.9" cy="340.5" r="1.4" fill="#FFB7C8" opacity="0.37" filter="url(#glow)"/>
<circle cx="389.9" cy="86.8" r="1.1" fill="#FFD37E" opacity="0.17" filter="url(#glow)"/>
<circle cx="682.6" cy="40.3" r="1.0" fill="#FFE8B7" opacity="0.27" filter="url(#glow)"/>
<circle cx="269.1" cy="234.4" r="0.9" fill="#FFD37E" opacity="0.14" filter="url(#glow)"/>
<circle cx="126.9" cy="269.3" r="1.3" fill="#FFB7C8" opacity="0.47" filter="url(#glow)"/>
<circle cx="675.7" cy="15.5" r="1.6" fill="#4A3F7A" opacity="0.14" filter="url(#glow)"/>
<circle cx="516.8" cy="99.6" r="1.1" fill="#FFE8B7" opacity="0.12" filter="url(#glow)"/>
<circle cx="377.4" cy="222.0" r="1.0" fill="#5E6DB3" opacity="0.12" filter="url(#glow)"/>
<circle cx="145.3" cy="311.9" r="0.7" fill="#FFE8B7" opacity="0.16" filter="url(#glow)"/>
<circle cx="533.3" cy="136.2" r="1.8" fill="#FFE8B7" opacity="0.24" filter="url(#glow)"/>
<circle cx="575.0" cy="85.6" r="0.8" fill="#5E6DB3" opacity="0.25" filter="url(#glow)"/>
<circle cx="474.3" cy="119.2" r="1.4" fill="#243B73" opacity="0.34" filter="url(#glow)"/>
<circle cx="137.4" cy="268.4" r="0.7" fill="#FFE8B7" opacity="0.42" filter="url(#glow)"/>
<circle cx="5.1" cy="388.0" r="1.3" fill="#FFF4D6" opacity="0.16" filter="url(#glow)"/>
<circle cx="617.5" cy="-0.2" r="2.1" fill="#4A3F7A" opacity="0.09" filter="url(#glow)"/>
<circle cx="91.1" cy="177.6" r="1.6" fill="#5E6DB3" opacity="0.23" filter="url(#glow)"/>
<circle cx="152.3" cy="320.3" r="1.8" fill="#FF7CCB" opacity="0.31" filter="url(#glow)"/>
<circle cx="193.3" cy="249.5" r="1.4" fill="#5E6DB3" opacity="0.08" filter="url(#glow)"/>
<circle cx="55.2" cy="368.1" r="0.7" fill="#FFB7C8" opacity="0.36" filter="url(#glow)"/>
<circle cx="450.7" cy="173.3" r="1.9" fill="#243B73" opacity="0.32" filter="url(#glow)"/>
<circle cx="354.7" cy="210.7" r="2.0" fill="#FFE8B7" opacity="0.31" filter="url(#glow)"/>
<circle cx="408.4" cy="167.5" r="1.8" fill="#FFE8B7" opacity="0.35" filter="url(#glow)"/>
<circle cx="429.2" cy="133.6" r="1.1" fill="#FFB7C8" opacity="0.41" filter="url(#glow)"/>
<circle cx="685.1" cy="22.7" r="0.8" fill="#243B73" opacity="0.24" filter="url(#glow)"/>
<circle cx="373.1" cy="230.1" r="0.8" fill="#FFE8B7" opacity="0.16" filter="url(#glow)"/>
<circle cx="630.7" cy="108.4" r="1.6" fill="#FFD37E" opacity="0.15" filter="url(#glow)"/>
<circle cx="682.5" cy="58.1" r="1.3" fill="#FF7CCB" opacity="0.28" filter="url(#glow)"/>
<circle cx="328.8" cy="194.3" r="1.7" fill="#FFF4D6" opacity="0.09" filter="url(#glow)"/>
<circle cx="271.5" cy="166.8" r="0.6" fill="#5E6DB3" opacity="0.28" filter="url(#glow)"/>
<circle cx="43.3" cy="323.9" r="0.6" fill="#FFE8B7" opacity="0.11" filter="url(#glow)"/>
<circle cx="290.2" cy="216.6" r="1.8" fill="#FFD37E" opacity="0.44" filter="url(#glow)"/>
<circle cx="110.9" cy="313.7" r="2.0" fill="#4A3F7A" opacity="0.14" filter="url(#glow)"/>
<circle cx="59.9" cy="378.3" r="1.8" fill="#FFD37E" opacity="0.43" filter="url(#glow)"/>
<circle cx="626.3" cy="32.3" r="1.0" fill="#FF7CCB" opacity="0.15" filter="url(#glow)"/>
<circle cx="300.5" cy="249.1" r="2.0" fill="#FFF4D6" opacity="0.44" filter="url(#glow)"/>
<circle cx="226.0" cy="338.2" r="1.1" fill="#FFB7C8" opacity="0.45" filter="url(#glow)"/>
<circle cx="82.2" cy="292.3" r="1.2" fill="#FFB7C8" opacity="0.27" filter="url(#glow)"/>
<circle cx="390.7" cy="52.6" r="1.6" fill="#FFD37E" opacity="0.20" filter="url(#glow)"/>
<circle cx="279.0" cy="297.7" r="2.1" fill="#FFE8B7" opacity="0.31" filter="url(#glow)"/>
<circle cx="383.8" cy="252.1" r="1.4" fill="#FFF4D6" opacity="0.27" filter="url(#glow)"/>
<circle cx="421.9" cy="211.4" r="1.7" fill="#FFF4D6" opacity="0.38" filter="url(#glow)"/>
<circle cx="569.3" cy="27.9" r="0.5" fill="#FFD37E" opacity="0.37" filter="url(#glow)"/>
<circle cx="312.2" cy="139.3" r="1.8" fill="#4A3F7A" opacity="0.30" filter="url(#glow)"/>
<circle cx="377.1" cy="230.9" r="1.3" fill="#FFD37E" opacity="0.14" filter="url(#glow)"/>
<circle cx="286.6" cy="249.0" r="1.4" fill="#FFE8B7" opacity="0.15" filter="url(#glow)"/>
<circle cx="495.3" cy="122.6" r="1.3" fill="#FF7CCB" opacity="0.16" filter="url(#glow)"/>
<circle cx="236.5" cy="275.5" r="2.1" fill="#243B73" opacity="0.19" filter="url(#glow)"/>
<circle cx="402.0" cy="181.8" r="0.5" fill="#5E6DB3" opacity="0.38" filter="url(#glow)"/>
<circle cx="175.5" cy="286.5" r="0.7" fill="#5E6DB3" opacity="0.39" filter="url(#glow)"/>
<circle cx="140.9" cy="261.8" r="2.0" fill="#FFD37E" opacity="0.36" filter="url(#glow)"/>
<circle cx="279.2" cy="387.5" r="0.5" fill="#FF7CCB" opacity="0.35" filter="url(#glow)"/>
<circle cx="129.2" cy="277.1" r="1.1" fill="#FFD37E" opacity="0.27" filter="url(#glow)"/>
<circle cx="518.9" cy="26.8" r="0.6" fill="#4A3F7A" opacity="0.10" filter="url(#glow)"/>
<circle cx="332.5" cy="162.2" r="1.3" fill="#4A3F7A" opacity="0.13" filter="url(#glow)"/>
<circle cx="307.9" cy="252.5" r="1.2" fill="#FFF4D6" opacity="0.35" filter="url(#glow)"/>
<circle cx="157.4" cy="373.3" r="1.9" fill="#FFE8B7" opacity="0.47" filter="url(#glow)"/>
<circle cx="559.7" cy="72.4" r="1.5" fill="#5E6DB3" opacity="0.30" filter="url(#glow)"/>
<circle cx="500.3" cy="133.4" r="1.9" fill="#4A3F7A" opacity="0.16" filter="url(#glow)"/>
<circle cx="332.9" cy="219.4" r="1.3" fill="#FFD37E" opacity="0.26" filter="url(#glow)"/>
<circle cx="313.8" cy="209.0" r="1.6" fill="#FFD37E" opacity="0.11" filter="url(#glow)"/>
<circle cx="85.3" cy="285.6" r="1.8" fill="#4A3F7A" opacity="0.29" filter="url(#glow)"/>
<circle cx="695.4" cy="47.7" r="1.7" fill="#FFE8B7" opacity="0.13" filter="url(#glow)"/>
<circle cx="267.8" cy="203.7" r="1.6" fill="#FFE8B7" opacity="0.33" filter="url(#glow)"/>
<circle cx="582.6" cy="143.1" r="0.8" fill="#FFB7C8" opacity="0.32" filter="url(#glow)"/>
<circle cx="426.3" cy="122.7" r="1.3" fill="#FF7CCB" opacity="0.21" filter="url(#glow)"/>
<circle cx="537.5" cy="62.9" r="2.0" fill="#FF7CCB" opacity="0.10" filter="url(#glow)"/>
<circle cx="505.3" cy="-37.7" r="2.1" fill="#243B73" opacity="0.34" filter="url(#glow)"/>
<circle cx="126.5" cy="350.5" r="1.4" fill="#FFB7C8" opacity="0.23" filter="url(#glow)"/>
<circle cx="305.6" cy="239.7" r="0.7" fill="#243B73" opacity="0.18" filter="url(#glow)"/>
<circle cx="277.9" cy="185.5" r="1.2" fill="#FFD37E" opacity="0.16" filter="url(#glow)"/>
<circle cx="117.0" cy="336.0" r="1.5" fill="#FFD37E" opacity="0.11" filter="url(#glow)"/>
<circle cx="195.4" cy="335.7" r="1.8" fill="#FFB7C8" opacity="0.21" filter="url(#glow)"/>
<circle cx="157.5" cy="294.5" r="1.6" fill="#FFD37E" opacity="0.31" filter="url(#glow)"/>
<circle cx="483.6" cy="40.1" r="1.1" fill="#243B73" opacity="0.37" filter="url(#glow)"/>
<circle cx="438.1" cy="206.4" r="1.2" fill="#4A3F7A" opacity="0.27" filter="url(#glow)"/>
<circle cx="309.3" cy="152.6" r="0.9" fill="#FFB7C8" opacity="0.29" filter="url(#glow)"/>
<circle cx="589.4" cy="79.0" r="1.3" fill="#243B73" opacity="0.32" filter="url(#glow)"/>
<circle cx="666.9" cy="67.4" r="0.5" fill="#4A3F7A" opacity="0.11" filter="url(#glow)"/>
<circle cx="416.4" cy="189.4" r="1.1" fill="#243B73" opacity="0.20" filter="url(#glow)"/>
<circle cx="192.7" cy="277.7" r="2.0" fill="#FFD37E" opacity="0.33" filter="url(#glow)"/>
<circle cx="536.5" cy="85.5" r="0.9" fill="#FFD37E" opacity="0.09" filter="url(#glow)"/>
<circle cx="576.2" cy="83.2" r="0.7" fill="#4A3F7A" opacity="0.24" filter="url(#glow)"/>
<circle cx="136.9" cy="317.0" r="1.9" fill="#FF7CCB" opacity="0.43" filter="url(#glow)"/>
<circle cx="473.9" cy="160.1" r="1.3" fill="#FFE8B7" opacity="0.31" filter="url(#glow)"/>
<circle cx="304.8" cy="169.2" r="0.9" fill="#FFE8B7" opacity="0.08" filter="url(#glow)"/>
<circle cx="230.0" cy="187.7" r="0.6" fill="#FFB7C8" opacity="0.23" filter="url(#glow)"/>
<circle cx="277.0" cy="231.1" r="1.3" fill="#FFB7C8" opacity="0.19" filter="url(#glow)"/>
<circle cx="398.5" cy="284.8" r="1.2" fill="#FF7CCB" opacity="0.21" filter="url(#glow)"/>
<circle cx="677.8" cy="68.2" r="0.8" fill="#FFB7C8" opacity="0.30" filter="url(#glow)"/>
<circle cx="373.8" cy="280.3" r="0.7" fill="#FFF4D6" opacity="0.19" filter="url(#glow)"/>
<circle cx="383.2" cy="167.6" r="0.7" fill="#4A3F7A" opacity="0.43" filter="url(#glow)"/>
<circle cx="611.9" cy="81.6" r="0.9" fill="#FF7CCB" opacity="0.27" filter="url(#glow)"/>
<circle cx="259.6" cy="222.6" r="2.1" fill="#FFF4D6" opacity="0.36" filter="url(#glow)"/>
<circle cx="608.9" cy="70.0" r="1.9" fill="#FFE8B7" opacity="0.08" filter="url(#glow)"/>
<circle cx="376.2" cy="215.6" r="0.5" fill="#5E6DB3" opacity="0.31" filter="url(#glow)"/>
<circle cx="577.9" cy="98.9" r="0.6" fill="#FFE8B7" opacity="0.32" filter="url(#glow)"/>
<circle cx="402.9" cy="81.4" r="0.9" fill="#4A3F7A" opacity="0.16" filter="url(#glow)"/>
<circle cx="513.9" cy="124.5" r="0.5" fill="#5E6DB3" opacity="0.10" filter="url(#glow)"/>
<circle cx="617.4" cy="99.8" r="0.8" fill="#5E6DB3" opacity="0.08" filter="url(#glow)"/>
<circle cx="340.6" cy="110.1" r="2.0" fill="#FFB7C8" opacity="0.33" filter="url(#glow)"/>
<circle cx="146.9" cy="320.3" r="0.7" fill="#4A3F7A" opacity="0.18" filter="url(#glow)"/>
<circle cx="636.0" cy="59.7" r="2.1" fill="#FFB7C8" opacity="0.20" filter="url(#glow)"/>
<circle cx="646.2" cy="23.8" r="2.1" fill="#5E6DB3" opacity="0.34" filter="url(#glow)"/>
<circle cx="268.0" cy="161.4" r="1.2" fill="#243B73" opacity="0.18" filter="url(#glow)"/>
<circle cx="267.2" cy="242.9" r="1.0" fill="#FFE8B7" opacity="0.44" filter="url(#glow)"/>
<circle cx="330.2" cy="222.6" r="1.0" fill="#FFE8B7" opacity="0.22" filter="url(#glow)"/>
<circle cx="758.0" cy="106.2" r="1.8" fill="#5E6DB3" opacity="0.14" filter="url(#glow)"/>
<circle cx="479.6" cy="92.6" r="0.9" fill="#FFE8B7" opacity="0.07" filter="url(#glow)"/>
<circle cx="333.0" cy="252.4" r="0.7" fill="#5E6DB3" opacity="0.19" filter="url(#glow)"/>
<circle cx="676.1" cy="33.8" r="1.4" fill="#FF7CCB" opacity="0.34" filter="url(#glow)"/>
<circle cx="355.4" cy="184.2" r="2.1" fill="#FFF4D6" opacity="0.17" filter="url(#glow)"/>
<circle cx="222.0" cy="179.0" r="0.9" fill="#4A3F7A" opacity="0.37" filter="url(#glow)"/>
<circle cx="378.1" cy="173.6" r="2.1" fill="#FFF4D6" opacity="0.22" filter="url(#glow)"/>
<circle cx="389.3" cy="162.5" r="1.1" fill="#5E6DB3" opacity="0.11" filter="url(#glow)"/>
<circle cx="78.8" cy="397.4" r="1.5" fill="#FFB7C8" opacity="0.35" filter="url(#glow)"/>
<circle cx="682.4" cy="58.8" r="2.0" fill="#FFF4D6" opacity="0.14" filter="url(#glow)"/>
<circle cx="568.0" cy="93.9" r="2.0" fill="#FF7CCB" opacity="0.21" filter="url(#glow)"/>
<circle cx="133.0" cy="335.2" r="1.5" fill="#FFE8B7" opacity="0.18" filter="url(#glow)"/>
<circle cx="213.6" cy="313.9" r="2.0" fill="#FFD37E" opacity="0.32" filter="url(#glow)"/>
<circle cx="144.1" cy="359.7" r="0.9" fill="#FFB7C8" opacity="0.16" filter="url(#glow)"/>
<circle cx="525.0" cy="140.6" r="0.8" fill="#4A3F7A" opacity="0.37" filter="url(#glow)"/>
<circle cx="237.0" cy="326.2" r="1.4" fill="#FFE8B7" opacity="0.36" filter="url(#glow)"/>
<circle cx="623.7" cy="56.3" r="1.1" fill="#FFF4D6" opacity="0.26" filter="url(#glow)"/>
<circle cx="241.3" cy="303.4" r="2.1" fill="#FFF4D6" opacity="0.37" filter="url(#glow)"/>
<circle cx="179.3" cy="281.9" r="1.4" fill="#4A3F7A" opacity="0.28" filter="url(#glow)"/>
<circle cx="135.4" cy="309.5" r="0.9" fill="#5E6DB3" opacity="0.12" filter="url(#glow)"/>
<circle cx="389.3" cy="207.8" r="1.5" fill="#FFD37E" opacity="0.36" filter="url(#glow)"/>
<circle cx="252.2" cy="178.7" r="1.5" fill="#FFB7C8" opacity="0.12" filter="url(#glow)"/>
<circle cx="410.0" cy="117.8" r="0.6" fill="#FFB7C8" opacity="0.08" filter="url(#glow)"/>
<circle cx="152.7" cy="319.0" r="2.0" fill="#FFE8B7" opacity="0.29" filter="url(#glow)"/>
<circle cx="222.9" cy="233.5" r="2.1" fill="#FF7CCB" opacity="0.28" filter="url(#glow)"/>
<circle cx="299.5" cy="143.7" r="1.0" fill="#5E6DB3" opacity="0.34" filter="url(#glow)"/>
<circle cx="319.7" cy="234.1" r="1.5" fill="#FFB7C8" opacity="0.41" filter="url(#glow)"/>
<circle cx="415.0" cy="105.5" r="0.9" fill="#FF7CCB" opacity="0.18" filter="url(#glow)"/>
<circle cx="230.4" cy="204.0" r="1.4" fill="#5E6DB3" opacity="0.28" filter="url(#glow)"/>
<circle cx="121.0" cy="378.5" r="0.5" fill="#5E6DB3" opacity="0.32" filter="url(#glow)"/>
<circle cx="389.6" cy="180.2" r="1.7" fill="#243B73" opacity="0.31" filter="url(#glow)"/>
<circle cx="220.1" cy="283.0" r="1.3" fill="#4A3F7A" opacity="0.25" filter="url(#glow)"/>
<circle cx="594.9" cy="117.9" r="1.7" fill="#FFD37E" opacity="0.17" filter="url(#glow)"/>
<circle cx="58.5" cy="244.7" r="0.7" fill="#243B73" opacity="0.33" filter="url(#glow)"/>
<circle cx="350.1" cy="123.4" r="1.5" fill="#FFE8B7" opacity="0.20" filter="url(#glow)"/>
<circle cx="281.2" cy="277.9" r="1.0" fill="#FFD37E" opacity="0.35" filter="url(#glow)"/>
<circle cx="755.7" cy="8.4" r="0.8" fill="#FFD37E" opacity="0.36" filter="url(#glow)"/>
<circle cx="48.0" cy="229.2" r="0.8" fill="#FFF4D6" opacity="0.21" filter="url(#glow)"/>
<circle cx="506.9" cy="63.7" r="1.4" fill="#4A3F7A" opacity="0.16" filter="url(#glow)"/>
<circle cx="370.2" cy="134.9" r="0.5" fill="#5E6DB3" opacity="0.38" filter="url(#glow)"/>
</svg>