<svg xmlns="http://www.w3.org/2000/svg" width="400" height="400" viewBox="0 0 400 400" fill="none">
<defs>
<radialGradient id="g1" cx="50%" cy="50%" r="50%">
<stop offset="0%" stop-color="#FFFFFF" stop-opacity="0.96"/>
<stop offset="28%" stop-color="#FFD37E" stop-opacity="0.70"/>
<stop offset="56%" stop-color="#FFB7C8" stop-opacity="0.24"/>
<stop offset="100%" stop-color="#83A6D8" stop-opacity="0"/>
</radialGradient>
<filter id="blur"><feGaussianBlur stdDeviation="8"/></filter>
</defs>
<circle cx="200.0" cy="200.0" r="135" fill="url(#g1)" opacity="0.84" filter="url(#blur)"/>
<circle cx="236.2" cy="228.1" r="1.2" fill="#4A3F7A" opacity="0.53"/>
<circle cx="293.3" cy="250.4" r="1.4" fill="#FFFFFF" opacity="0.65"/>
<circle cx="122.5" cy="209.8" r="2.3" fill="#83A6D8" opacity="0.36"/>
<circle cx="201.3" cy="176.5" r="2.7" fill="#83A6D8" opacity="0.54"/>
<circle cx="121.1" cy="135.1" r="1.9" fill="#FFFFFF" opacity="0.71"/>
<circle cx="186.8" cy="247.6" r="2.3" fill="#FFFFFF" opacity="0.69"/>
<circle cx="210.0" cy="180.3" r="2.8" fill="#FFD37E" opacity="0.64"/>
<circle cx="116.3" cy="189.9" r="1.9" fill="#FFD37E" opacity="0.25"/>
<circle cx="230.8" cy="197.5" r="2.6" fill="#FFD37E" opacity="0.71"/>
<circle cx="284.2" cy="123.9" r="1.4" fill="#FFFFFF" opacity="0.58"/>
<circle cx="203.7" cy="229.3" r="1.8" fill="#FFD37E" opacity="0.47"/>
<circle cx="181.8" cy="293.2" r="1.9" fill="#4A3F7A" opacity="0.38"/>
<circle cx="102.2" cy="256.4" r="1.4" fill="#FFE8B7" opacity="0.38"/>
<circle cx="173.7" cy="144.7" r="1.9" fill="#FFD37E" opacity="0.39"/>
<circle cx="224.0" cy="182.2" r="1.2" fill="#FFD37E" opacity="0.62"/>
<circle cx="154.7" cy="211.2" r="1.4" fill="#4A3F7A" opacity="0.48"/>
<circle cx="169.2" cy="168.8" r="2.7" fill="#FFFFFF" opacity="0.41"/>
<circle cx="292.2" cy="139.3" r="1.4" fill="#83A6D8" opacity="0.39"/>
<circle cx="164.2" cy="137.4" r="2.7" fill="#FFD37E" opacity="0.40"/>
<circle cx="278.8" cy="190.8" r="2.1" fill="#FFFFFF" opacity="0.63"/>
<circle cx="204.6" cy="202.4" r="1.2" fill="#FFD37E" opacity="0.38"/>
<circle cx="220.6" cy="259.2" r="2.8" fill="#FFD37E" opacity="0.30"/>
<circle cx="228.9" cy="213.8" r="2.4" fill="#4A3F7A" opacity="0.35"/>
<circle cx="173.3" cy="229.5" r="1.6" fill="#FFD37E" opacity="0.64"/>
<circle cx="136.7" cy="219.1" r="1.9" fill="#FFFFFF" opacity="0.28"/>
<circle cx="142.9" cy="230.7" r="2.3" fill="#FFE8B7" opacity="0.59"/>
<circle cx="138.8" cy="210.1" r="2.1" fill="#FFD37E" opacity="0.51"/>
<circle cx="242.4" cy="238.2" r="2.1" fill="#FFE8B7" opacity="0.70"/>
</svg>