<svg xmlns="http://www.w3.org/2000/svg" width="820" height="300" viewBox="0 0 820 300" fill="none">
<defs>
<filter id="softGlow" x="-90%" y="-90%" width="280%" height="280%">
<feGaussianBlur stdDeviation="8" result="blur"/>
<feMerge><feMergeNode in="blur"/><feMergeNode in="SourceGraphic"/></feMerge>
</filter>
<linearGradient id="grad1" x1="0" y1="1" x2="1" y2="0">
<stop offset="0%" stop-color="#1F2A56" stop-opacity="0"/>
<stop offset="18%" stop-color="#243B73" stop-opacity="0.48"/>
<stop offset="42%" stop-color="#4A3F7A" stop-opacity="0.38"/>
<stop offset="70%" stop-color="#83A6D8" stop-opacity="0.24"/>
<stop offset="100%" stop-color="#83A6D8" stop-opacity="0"/>
</linearGradient>
<linearGradient id="grad2" x1="0" y1="1" x2="1" y2="0">
<stop offset="0%" stop-color="#243B73" stop-opacity="0"/>
<stop offset="25%" stop-color="#5E6DB3" stop-opacity="0.42"/>
<stop offset="55%" stop-color="#FFE8B7" stop-opacity="0.20"/>
<stop offset="100%" stop-color="#83A6D8" stop-opacity="0"/>
</linearGradient>
</defs>
<path d="M 65 248.2 C 220 172.4, 345 229.9, 485 145.1 S 665 52.9, 760 30.8" stroke="url(#grad1)" stroke-width="3.4" stroke-linecap="round" opacity="0.52" filter="url(#softGlow)"/>
<path d="M 65 225.5 C 220 185.7, 345 219.2, 485 137.0 S 665 61.9, 760 40.0" stroke="url(#grad2)" stroke-width="2.7" stroke-linecap="round" opacity="0.26" filter="url(#softGlow)"/>
<path d="M 65 232.9 C 220 157.4, 345 202.2, 485 140.5 S 665 59.3, 760 34.7" stroke="url(#grad1)" stroke-width="2.4" stroke-linecap="round" opacity="0.51" filter="url(#softGlow)"/>
<path d="M 65 241.7 C 220 177.8, 345 211.4, 485 172.4 S 665 44.0, 760 55.5" stroke="url(#grad2)" stroke-width="3.4" stroke-linecap="round" opacity="0.30" filter="url(#softGlow)"/>
<path d="M 65 242.2 C 220 174.5, 345 229.6, 485 151.3 S 665 67.1, 760 39.0" stroke="url(#grad1)" stroke-width="2.7" stroke-linecap="round" opacity="0.40" filter="url(#softGlow)"/>
<path d="M 65 239.4 C 220 159.9, 345 240.2, 485 169.8 S 665 43.1, 760 42.9" stroke="url(#grad2)" stroke-width="2.0" stroke-linecap="round" opacity="0.31" filter="url(#softGlow)"/>
</svg>