<svg xmlns="http://www.w3.org/2000/svg" width="800" height="500" viewBox="0 0 800 500" fill="none">
<defs>
<filter id="glow" x="-100%" y="-100%" width="300%" height="300%">
<feGaussianBlur stdDeviation="2.5" result="blur"/>
<feMerge><feMergeNode in="blur"/><feMergeNode in="SourceGraphic"/></feMerge>
</filter>
</defs>
<circle cx="488.2" cy="126.8" r="1.5" fill="#FFB7C8" opacity="0.14" filter="url(#glow)"/>
<circle cx="189.6" cy="378.9" r="1.4" fill="#4A3F7A" opacity="0.08" filter="url(#glow)"/>
<circle cx="124.1" cy="368.7" r="1.0" fill="#4A3F7A" opacity="0.25" filter="url(#glow)"/>
<circle cx="211.7" cy="388.7" r="1.6" fill="#FFD37E" opacity="0.27" filter="url(#glow)"/>
<circle cx="251.3" cy="312.8" r="0.8" fill="#FFD37E" opacity="0.22" filter="url(#glow)"/>
<circle cx="271.6" cy="347.3" r="1.0" fill="#83A6D8" opacity="0.31" filter="url(#glow)"/>
<circle cx="344.8" cy="322.8" r="1.4" fill="#83A6D8" opacity="0.31" filter="url(#glow)"/>
<circle cx="384.4" cy="212.2" r="1.5" fill="#FFE8B7" opacity="0.18" filter="url(#glow)"/>
<circle cx="583.8" cy="123.8" r="1.6" fill="#FFB7C8" opacity="0.13" filter="url(#glow)"/>
<circle cx="774.2" cy="85.2" r="1.0" fill="#FFD37E" opacity="0.11" filter="url(#glow)"/>
<circle cx="180.1" cy="382.7" r="1.4" fill="#FFE8B7" opacity="0.29" filter="url(#glow)"/>
<circle cx="356.6" cy="227.4" r="0.9" fill="#83A6D8" opacity="0.22" filter="url(#glow)"/>
<circle cx="583.2" cy="114.4" r="0.7" fill="#FFB7C8" opacity="0.13" filter="url(#glow)"/>
<circle cx="208.4" cy="291.0" r="0.7" fill="#83A6D8" opacity="0.28" filter="url(#glow)"/>
<circle cx="233.6" cy="289.9" r="1.0" fill="#FFE8B7" opacity="0.19" filter="url(#glow)"/>
<circle cx="204.6" cy="293.7" r="0.7" fill="#83A6D8" opacity="0.11" filter="url(#glow)"/>
<circle cx="716.6" cy="-7.7" r="0.7" fill="#FFB7C8" opacity="0.13" filter="url(#glow)"/>
<circle cx="529.1" cy="91.1" r="0.8" fill="#FFD37E" opacity="0.24" filter="url(#glow)"/>
<circle cx="280.1" cy="389.9" r="1.0" fill="#FFD37E" opacity="0.32" filter="url(#glow)"/>
<circle cx="432.9" cy="241.0" r="1.5" fill="#83A6D8" opacity="0.08" filter="url(#glow)"/>
<circle cx="203.2" cy="376.9" r="1.4" fill="#4A3F7A" opacity="0.10" filter="url(#glow)"/>
<circle cx="382.8" cy="237.6" r="1.0" fill="#FFD37E" opacity="0.17" filter="url(#glow)"/>
<circle cx="650.7" cy="56.7" r="1.7" fill="#4A3F7A" opacity="0.15" filter="url(#glow)"/>
<circle cx="557.2" cy="104.7" r="1.5" fill="#83A6D8" opacity="0.22" filter="url(#glow)"/>
<circle cx="663.5" cy="31.9" r="0.5" fill="#FFD37E" opacity="0.17" filter="url(#glow)"/>
<circle cx="178.2" cy="356.4" r="1.7" fill="#FFB7C8" opacity="0.25" filter="url(#glow)"/>
<circle cx="508.6" cy="113.7" r="1.0" fill="#4A3F7A" opacity="0.20" filter="url(#glow)"/>
<circle cx="83.5" cy="439.9" r="1.3" fill="#FFD37E" opacity="0.19" filter="url(#glow)"/>
<circle cx="689.4" cy="2.4" r="0.9" fill="#83A6D8" opacity="0.13" filter="url(#glow)"/>
<circle cx="701.0" cy="135.8" r="0.6" fill="#FFE8B7" opacity="0.21" filter="url(#glow)"/>
<circle cx="474.5" cy="153.1" r="0.6" fill="#4A3F7A" opacity="0.19" filter="url(#glow)"/>
<circle cx="182.9" cy="290.5" r="0.9" fill="#4A3F7A" opacity="0.19" filter="url(#glow)"/>
<circle cx="384.7" cy="163.4" r="1.3" fill="#FFD37E" opacity="0.13" filter="url(#glow)"/>
<circle cx="245.3" cy="302.2" r="1.6" fill="#4A3F7A" opacity="0.20" filter="url(#glow)"/>
<circle cx="372.0" cy="314.1" r="1.3" fill="#FFB7C8" opacity="0.24" filter="url(#glow)"/>
<circle cx="210.1" cy="342.4" r="1.4" fill="#FFD37E" opacity="0.09" filter="url(#glow)"/>
<circle cx="197.4" cy="408.2" r="0.6" fill="#FFE8B7" opacity="0.13" filter="url(#glow)"/>
<circle cx="226.6" cy="312.5" r="1.6" fill="#FFE8B7" opacity="0.09" filter="url(#glow)"/>
<circle cx="147.9" cy="416.4" r="1.1" fill="#FFE8B7" opacity="0.12" filter="url(#glow)"/>
<circle cx="527.1" cy="109.2" r="1.5" fill="#FFE8B7" opacity="0.13" filter="url(#glow)"/>
<circle cx="517.8" cy="158.0" r="0.7" fill="#FFB7C8" opacity="0.11" filter="url(#glow)"/>
<circle cx="636.1" cy="47.6" r="0.7" fill="#FFB7C8" opacity="0.07" filter="url(#glow)"/>
<circle cx="641.3" cy="44.0" r="0.6" fill="#FFB7C8" opacity="0.20" filter="url(#glow)"/>
<circle cx="270.5" cy="274.4" r="1.6" fill="#FFB7C8" opacity="0.17" filter="url(#glow)"/>
<circle cx="672.6" cy="73.1" r="0.6" fill="#4A3F7A" opacity="0.12" filter="url(#glow)"/>
<circle cx="545.2" cy="98.4" r="0.6" fill="#FFB7C8" opacity="0.15" filter="url(#glow)"/>
<circle cx="114.9" cy="359.4" r="0.9" fill="#FFD37E" opacity="0.19" filter="url(#glow)"/>
<circle cx="753.1" cy="116.7" r="1.5" fill="#83A6D8" opacity="0.14" filter="url(#glow)"/>
<circle cx="599.9" cy="89.2" r="0.7" fill="#83A6D8" opacity="0.14" filter="url(#glow)"/>
<circle cx="277.8" cy="349.2" r="0.8" fill="#FFB7C8" opacity="0.23" filter="url(#glow)"/>
<circle cx="691.4" cy="34.4" r="0.7" fill="#FFE8B7" opacity="0.17" filter="url(#glow)"/>
<circle cx="215.2" cy="368.0" r="1.3" fill="#FFE8B7" opacity="0.27" filter="url(#glow)"/>
<circle cx="569.5" cy="81.9" r="0.6" fill="#83A6D8" opacity="0.19" filter="url(#glow)"/>
<circle cx="160.9" cy="419.5" r="1.6" fill="#FFB7C8" opacity="0.20" filter="url(#glow)"/>
<circle cx="583.6" cy="159.3" r="1.0" fill="#FFB7C8" opacity="0.13" filter="url(#glow)"/>
<circle cx="401.0" cy="272.7" r="0.8" fill="#83A6D8" opacity="0.28" filter="url(#glow)"/>
<circle cx="350.4" cy="210.0" r="1.5" fill="#FFB7C8" opacity="0.10" filter="url(#glow)"/>
<circle cx="537.0" cy="148.4" r="1.4" fill="#FFB7C8" opacity="0.07" filter="url(#glow)"/>
<circle cx="41.8" cy="411.0" r="1.3" fill="#4A3F7A" opacity="0.09" filter="url(#glow)"/>
<circle cx="155.4" cy="416.7" r="0.8" fill="#83A6D8" opacity="0.23" filter="url(#glow)"/>
<circle cx="650.6" cy="121.0" r="1.1" fill="#83A6D8" opacity="0.19" filter="url(#glow)"/>
<circle cx="273.5" cy="304.9" r="1.5" fill="#FFE8B7" opacity="0.19" filter="url(#glow)"/>
<circle cx="583.7" cy="83.5" r="0.9" fill="#83A6D8" opacity="0.26" filter="url(#glow)"/>
<circle cx="653.8" cy="69.4" r="1.6" fill="#FFB7C8" opacity="0.19" filter="url(#glow)"/>
<circle cx="601.7" cy="87.2" r="1.6" fill="#4A3F7A" opacity="0.24" filter="url(#glow)"/>
<circle cx="398.7" cy="285.9" r="1.4" fill="#FFB7C8" opacity="0.28" filter="url(#glow)"/>
<circle cx="353.9" cy="252.7" r="0.7" fill="#FFB7C8" opacity="0.22" filter="url(#glow)"/>
<circle cx="598.2" cy="67.6" r="1.2" fill="#83A6D8" opacity="0.19" filter="url(#glow)"/>
<circle cx="627.1" cy="54.3" r="1.2" fill="#FFD37E" opacity="0.18" filter="url(#glow)"/>
<circle cx="126.2" cy="453.5" r="0.9" fill="#FFB7C8" opacity="0.08" filter="url(#glow)"/>
<circle cx="695.9" cy="23.3" r="0.9" fill="#4A3F7A" opacity="0.14" filter="url(#glow)"/>
<circle cx="482.0" cy="226.0" r="0.8" fill="#FFE8B7" opacity="0.10" filter="url(#glow)"/>
<circle cx="563.3" cy="148.0" r="0.9" fill="#4A3F7A" opacity="0.08" filter="url(#glow)"/>
<circle cx="182.0" cy="324.6" r="0.5" fill="#83A6D8" opacity="0.19" filter="url(#glow)"/>
<circle cx="732.9" cy="123.3" r="1.2" fill="#FFB7C8" opacity="0.08" filter="url(#glow)"/>
<circle cx="503.4" cy="88.9" r="1.6" fill="#FFB7C8" opacity="0.11" filter="url(#glow)"/>
<circle cx="395.0" cy="158.3" r="1.3" fill="#FFB7C8" opacity="0.21" filter="url(#glow)"/>
<circle cx="245.5" cy="270.4" r="0.6" fill="#FFE8B7" opacity="0.11" filter="url(#glow)"/>
<circle cx="292.7" cy="275.8" r="1.5" fill="#FFD37E" opacity="0.22" filter="url(#glow)"/>
<circle cx="296.5" cy="321.3" r="1.6" fill="#FFD37E" opacity="0.15" filter="url(#glow)"/>
<circle cx="599.7" cy="106.4" r="0.5" fill="#FFD37E" opacity="0.18" filter="url(#glow)"/>
<circle cx="115.1" cy="352.0" r="0.8" fill="#4A3F7A" opacity="0.27" filter="url(#glow)"/>
<circle cx="684.7" cy="47.8" r="1.7" fill="#FFD37E" opacity="0.11" filter="url(#glow)"/>
<circle cx="549.3" cy="97.6" r="1.5" fill="#83A6D8" opacity="0.15" filter="url(#glow)"/>
<circle cx="576.3" cy="90.1" r="0.7" fill="#FFD37E" opacity="0.07" filter="url(#glow)"/>
<circle cx="202.3" cy="357.1" r="1.4" fill="#FFD37E" opacity="0.32" filter="url(#glow)"/>
<circle cx="476.9" cy="186.1" r="1.6" fill="#4A3F7A" opacity="0.22" filter="url(#glow)"/>
<circle cx="558.0" cy="95.4" r="0.9" fill="#FFE8B7" opacity="0.06" filter="url(#glow)"/>
<circle cx="468.3" cy="247.5" r="1.5" fill="#FFB7C8" opacity="0.08" filter="url(#glow)"/>
<circle cx="384.3" cy="280.7" r="0.7" fill="#83A6D8" opacity="0.29" filter="url(#glow)"/>
<circle cx="401.3" cy="186.0" r="0.6" fill="#FFE8B7" opacity="0.21" filter="url(#glow)"/>
<circle cx="341.3" cy="152.9" r="1.0" fill="#4A3F7A" opacity="0.30" filter="url(#glow)"/>
<circle cx="501.2" cy="175.4" r="0.6" fill="#FFB7C8" opacity="0.20" filter="url(#glow)"/>
<circle cx="553.7" cy="141.2" r="0.6" fill="#4A3F7A" opacity="0.12" filter="url(#glow)"/>
<circle cx="363.8" cy="260.6" r="1.4" fill="#4A3F7A" opacity="0.29" filter="url(#glow)"/>
<circle cx="121.9" cy="284.9" r="1.2" fill="#FFB7C8" opacity="0.26" filter="url(#glow)"/>
<circle cx="268.9" cy="292.7" r="0.7" fill="#4A3F7A" opacity="0.16" filter="url(#glow)"/>
<circle cx="642.5" cy="125.0" r="0.6" fill="#FFB7C8" opacity="0.15" filter="url(#glow)"/>
<circle cx="311.5" cy="217.8" r="1.5" fill="#4A3F7A" opacity="0.23" filter="url(#glow)"/>
<circle cx="595.1" cy="81.8" r="0.5" fill="#FFE8B7" opacity="0.24" filter="url(#glow)"/>
<circle cx="414.7" cy="193.8" r="1.6" fill="#FFD37E" opacity="0.08" filter="url(#glow)"/>
<circle cx="710.9" cy="60.6" r="1.1" fill="#4A3F7A" opacity="0.21" filter="url(#glow)"/>
<circle cx="186.4" cy="312.9" r="0.7" fill="#FFB7C8" opacity="0.25" filter="url(#glow)"/>
<circle cx="171.8" cy="330.4" r="1.0" fill="#FFD37E" opacity="0.08" filter="url(#glow)"/>
<circle cx="219.0" cy="308.4" r="1.2" fill="#4A3F7A" opacity="0.21" filter="url(#glow)"/>
<circle cx="630.2" cy="134.2" r="1.0" fill="#83A6D8" opacity="0.17" filter="url(#glow)"/>
<circle cx="570.0" cy="113.2" r="1.0" fill="#83A6D8" opacity="0.18" filter="url(#glow)"/>
<circle cx="580.0" cy="91.7" r="1.3" fill="#4A3F7A" opacity="0.23" filter="url(#glow)"/>
<circle cx="487.1" cy="108.9" r="0.9" fill="#FFD37E" opacity="0.13" filter="url(#glow)"/>
<circle cx="705.1" cy="54.6" r="1.2" fill="#FFB7C8" opacity="0.15" filter="url(#glow)"/>
<circle cx="518.6" cy="188.0" r="1.2" fill="#FFB7C8" opacity="0.13" filter="url(#glow)"/>
<circle cx="696.0" cy="68.1" r="1.0" fill="#83A6D8" opacity="0.06" filter="url(#glow)"/>
<circle cx="402.5" cy="230.9" r="1.1" fill="#FFE8B7" opacity="0.28" filter="url(#glow)"/>
<circle cx="518.9" cy="164.4" r="1.0" fill="#4A3F7A" opacity="0.25" filter="url(#glow)"/>
<circle cx="69.3" cy="414.7" r="1.7" fill="#83A6D8" opacity="0.28" filter="url(#glow)"/>
<circle cx="357.6" cy="227.0" r="1.1" fill="#FFB7C8" opacity="0.22" filter="url(#glow)"/>
<circle cx="551.9" cy="110.3" r="0.5" fill="#83A6D8" opacity="0.26" filter="url(#glow)"/>
<circle cx="456.6" cy="158.3" r="0.7" fill="#FFD37E" opacity="0.25" filter="url(#glow)"/>
<circle cx="587.0" cy="163.9" r="1.3" fill="#83A6D8" opacity="0.20" filter="url(#glow)"/>
<circle cx="481.1" cy="180.9" r="1.0" fill="#4A3F7A" opacity="0.12" filter="url(#glow)"/>
<circle cx="484.5" cy="94.3" r="1.5" fill="#FFB7C8" opacity="0.11" filter="url(#glow)"/>
<circle cx="597.5" cy="85.7" r="1.4" fill="#83A6D8" opacity="0.12" filter="url(#glow)"/>
<circle cx="151.3" cy="358.6" r="1.2" fill="#83A6D8" opacity="0.21" filter="url(#glow)"/>
<circle cx="418.8" cy="217.6" r="1.0" fill="#FFD37E" opacity="0.12" filter="url(#glow)"/>
<circle cx="498.1" cy="130.5" r="1.5" fill="#FFD37E" opacity="0.23" filter="url(#glow)"/>
<circle cx="396.3" cy="211.3" r="0.8" fill="#FFE8B7" opacity="0.28" filter="url(#glow)"/>
<circle cx="308.2" cy="257.9" r="1.2" fill="#FFE8B7" opacity="0.09" filter="url(#glow)"/>
<circle cx="727.4" cy="96.1" r="1.1" fill="#83A6D8" opacity="0.09" filter="url(#glow)"/>
<circle cx="365.8" cy="268.0" r="0.6" fill="#FFB7C8" opacity="0.09" filter="url(#glow)"/>
<circle cx="737.2" cy="80.9" r="1.5" fill="#FFE8B7" opacity="0.16" filter="url(#glow)"/>
<circle cx="229.8" cy="343.3" r="0.7" fill="#4A3F7A" opacity="0.15" filter="url(#glow)"/>
<circle cx="472.0" cy="125.5" r="1.1" fill="#FFB7C8" opacity="0.19" filter="url(#glow)"/>
<circle cx="163.2" cy="413.7" r="1.5" fill="#FFD37E" opacity="0.21" filter="url(#glow)"/>
<circle cx="179.0" cy="451.0" r="1.2" fill="#FFD37E" opacity="0.26" filter="url(#glow)"/>
<circle cx="205.7" cy="306.5" r="1.4" fill="#4A3F7A" opacity="0.27" filter="url(#glow)"/>
<circle cx="300.9" cy="339.7" r="1.3" fill="#FFE8B7" opacity="0.08" filter="url(#glow)"/>
<circle cx="599.9" cy="160.3" r="0.6" fill="#FFE8B7" opacity="0.20" filter="url(#glow)"/>
<circle cx="593.4" cy="91.8" r="1.4" fill="#FFD37E" opacity="0.10" filter="url(#glow)"/>
<circle cx="416.5" cy="163.7" r="1.2" fill="#4A3F7A" opacity="0.25" filter="url(#glow)"/>
<circle cx="391.5" cy="193.6" r="1.3" fill="#83A6D8" opacity="0.16" filter="url(#glow)"/>
<circle cx="623.5" cy="128.5" r="1.2" fill="#FFD37E" opacity="0.08" filter="url(#glow)"/>
<circle cx="707.4" cy="123.3" r="0.8" fill="#FFB7C8" opacity="0.25" filter="url(#glow)"/>
<circle cx="114.0" cy="364.6" r="1.2" fill="#83A6D8" opacity="0.30" filter="url(#glow)"/>
<circle cx="432.9" cy="238.0" r="0.8" fill="#FFE8B7" opacity="0.25" filter="url(#glow)"/>
<circle cx="650.7" cy="38.0" r="0.7" fill="#FFD37E" opacity="0.12" filter="url(#glow)"/>
<circle cx="626.3" cy="75.7" r="1.6" fill="#FFD37E" opacity="0.11" filter="url(#glow)"/>
<circle cx="486.8" cy="98.1" r="1.2" fill="#FFE8B7" opacity="0.13" filter="url(#glow)"/>
<circle cx="320.4" cy="223.8" r="1.5" fill="#4A3F7A" opacity="0.19" filter="url(#glow)"/>
<circle cx="379.2" cy="103.7" r="1.5" fill="#FFD37E" opacity="0.22" filter="url(#glow)"/>
<circle cx="660.4" cy="93.5" r="1.0" fill="#4A3F7A" opacity="0.19" filter="url(#glow)"/>
<circle cx="349.8" cy="130.9" r="0.9" fill="#83A6D8" opacity="0.16" filter="url(#glow)"/>
<circle cx="174.7" cy="320.2" r="0.8" fill="#FFE8B7" opacity="0.17" filter="url(#glow)"/>
<circle cx="165.5" cy="360.6" r="1.2" fill="#FFD37E" opacity="0.18" filter="url(#glow)"/>
<circle cx="423.8" cy="235.0" r="1.4" fill="#83A6D8" opacity="0.19" filter="url(#glow)"/>
<circle cx="275.6" cy="331.3" r="1.1" fill="#FFB7C8" opacity="0.21" filter="url(#glow)"/>
<circle cx="242.8" cy="270.9" r="1.6" fill="#4A3F7A" opacity="0.31" filter="url(#glow)"/>
<circle cx="262.3" cy="290.3" r="0.9" fill="#4A3F7A" opacity="0.30" filter="url(#glow)"/>
<circle cx="474.0" cy="101.7" r="1.0" fill="#FFD37E" opacity="0.07" filter="url(#glow)"/>
<circle cx="72.4" cy="355.1" r="0.7" fill="#FFD37E" opacity="0.33" filter="url(#glow)"/>
<circle cx="598.4" cy="100.3" r="1.0" fill="#4A3F7A" opacity="0.26" filter="url(#glow)"/>
<circle cx="449.9" cy="207.9" r="0.7" fill="#83A6D8" opacity="0.26" filter="url(#glow)"/>
<circle cx="705.4" cy="59.9" r="0.7" fill="#83A6D8" opacity="0.06" filter="url(#glow)"/>
<circle cx="621.4" cy="157.5" r="0.5" fill="#FFB7C8" opacity="0.13" filter="url(#glow)"/>
<circle cx="658.6" cy="101.6" r="0.9" fill="#83A6D8" opacity="0.17" filter="url(#glow)"/>
<circle cx="282.9" cy="347.0" r="1.5" fill="#FFB7C8" opacity="0.23" filter="url(#glow)"/>
<circle cx="696.0" cy="78.4" r="1.1" fill="#FFE8B7" opacity="0.11" filter="url(#glow)"/>
<circle cx="271.4" cy="287.9" r="1.2" fill="#FFE8B7" opacity="0.18" filter="url(#glow)"/>
<circle cx="586.2" cy="86.9" r="0.8" fill="#4A3F7A" opacity="0.14" filter="url(#glow)"/>
<circle cx="737.5" cy="109.1" r="1.6" fill="#4A3F7A" opacity="0.21" filter="url(#glow)"/>
<circle cx="338.0" cy="213.1" r="1.5" fill="#FFD37E" opacity="0.27" filter="url(#glow)"/>
<circle cx="667.5" cy="82.9" r="0.8" fill="#4A3F7A" opacity="0.17" filter="url(#glow)"/>
<circle cx="580.0" cy="130.7" r="1.7" fill="#FFE8B7" opacity="0.21" filter="url(#glow)"/>
<circle cx="172.9" cy="342.8" r="0.6" fill="#FFB7C8" opacity="0.23" filter="url(#glow)"/>
<circle cx="537.6" cy="39.0" r="1.7" fill="#4A3F7A" opacity="0.08" filter="url(#glow)"/>
<circle cx="196.1" cy="370.5" r="1.1" fill="#FFE8B7" opacity="0.24" filter="url(#glow)"/>
<circle cx="520.1" cy="97.2" r="0.9" fill="#83A6D8" opacity="0.24" filter="url(#glow)"/>
<circle cx="598.4" cy="98.4" r="1.4" fill="#FFD37E" opacity="0.16" filter="url(#glow)"/>
<circle cx="560.9" cy="123.1" r="1.1" fill="#FFE8B7" opacity="0.22" filter="url(#glow)"/>
<circle cx="155.3" cy="345.3" r="0.7" fill="#FFD37E" opacity="0.20" filter="url(#glow)"/>
<circle cx="723.9" cy="115.9" r="1.2" fill="#FFE8B7" opacity="0.17" filter="url(#glow)"/>
<circle cx="229.3" cy="355.1" r="1.0" fill="#FFD37E" opacity="0.21" filter="url(#glow)"/>
<circle cx="499.2" cy="98.8" r="1.1" fill="#83A6D8" opacity="0.09" filter="url(#glow)"/>
<circle cx="382.8" cy="306.2" r="1.5" fill="#83A6D8" opacity="0.27" filter="url(#glow)"/>
<circle cx="687.4" cy="52.3" r="1.5" fill="#FFB7C8" opacity="0.14" filter="url(#glow)"/>
<circle cx="121.2" cy="419.8" r="0.7" fill="#FFD37E" opacity="0.18" filter="url(#glow)"/>
<circle cx="514.3" cy="147.8" r="0.6" fill="#FFE8B7" opacity="0.26" filter="url(#glow)"/>
<circle cx="284.0" cy="285.7" r="0.8" fill="#FFB7C8" opacity="0.16" filter="url(#glow)"/>
<circle cx="484.0" cy="101.0" r="1.1" fill="#83A6D8" opacity="0.13" filter="url(#glow)"/>
<circle cx="511.4" cy="176.6" r="0.6" fill="#4A3F7A" opacity="0.10" filter="url(#glow)"/>
<circle cx="532.8" cy="162.7" r="0.8" fill="#FFD37E" opacity="0.18" filter="url(#glow)"/>
<circle cx="607.5" cy="121.4" r="1.7" fill="#FFB7C8" opacity="0.26" filter="url(#glow)"/>
<circle cx="765.4" cy="105.9" r="0.9" fill="#4A3F7A" opacity="0.22" filter="url(#glow)"/>
<circle cx="651.1" cy="133.5" r="0.9" fill="#4A3F7A" opacity="0.18" filter="url(#glow)"/>
<circle cx="363.9" cy="278.2" r="1.4" fill="#FFE8B7" opacity="0.24" filter="url(#glow)"/>
<circle cx="394.3" cy="159.3" r="1.6" fill="#FFD37E" opacity="0.09" filter="url(#glow)"/>
<circle cx="356.1" cy="280.5" r="0.7" fill="#FFB7C8" opacity="0.30" filter="url(#glow)"/>
<circle cx="505.3" cy="99.1" r="1.3" fill="#83A6D8" opacity="0.27" filter="url(#glow)"/>
<circle cx="448.4" cy="226.3" r="1.1" fill="#4A3F7A" opacity="0.19" filter="url(#glow)"/>
<circle cx="460.9" cy="184.4" r="1.6" fill="#83A6D8" opacity="0.25" filter="url(#glow)"/>
<circle cx="566.1" cy="130.3" r="1.0" fill="#FFE8B7" opacity="0.23" filter="url(#glow)"/>
<circle cx="457.2" cy="155.8" r="0.9" fill="#4A3F7A" opacity="0.22" filter="url(#glow)"/>
<circle cx="704.6" cy="98.9" r="1.3" fill="#FFD37E" opacity="0.12" filter="url(#glow)"/>
<circle cx="620.6" cy="34.3" r="1.6" fill="#FFE8B7" opacity="0.10" filter="url(#glow)"/>
<circle cx="115.3" cy="374.8" r="0.6" fill="#FFD37E" opacity="0.14" filter="url(#glow)"/>
<circle cx="350.1" cy="279.8" r="1.0" fill="#FFE8B7" opacity="0.17" filter="url(#glow)"/>
<circle cx="364.9" cy="234.9" r="1.1" fill="#FFD37E" opacity="0.11" filter="url(#glow)"/>
<circle cx="544.7" cy="132.8" r="1.3" fill="#FFE8B7" opacity="0.14" filter="url(#glow)"/>
<circle cx="534.5" cy="196.5" r="0.7" fill="#4A3F7A" opacity="0.12" filter="url(#glow)"/>
<circle cx="386.5" cy="270.8" r="0.9" fill="#FFB7C8" opacity="0.15" filter="url(#glow)"/>
<circle cx="709.2" cy="30.4" r="1.4" fill="#FFB7C8" opacity="0.11" filter="url(#glow)"/>
<circle cx="582.1" cy="132.6" r="0.8" fill="#4A3F7A" opacity="0.26" filter="url(#glow)"/>
<circle cx="88.1" cy="373.7" r="1.3" fill="#FFD37E" opacity="0.18" filter="url(#glow)"/>
<circle cx="763.3" cy="119.0" r="1.3" fill="#83A6D8" opacity="0.07" filter="url(#glow)"/>
<circle cx="565.2" cy="143.3" r="1.6" fill="#FFD37E" opacity="0.14" filter="url(#glow)"/>
<circle cx="554.6" cy="142.7" r="1.2" fill="#FFB7C8" opacity="0.07" filter="url(#glow)"/>
<circle cx="642.3" cy="99.8" r="0.7" fill="#4A3F7A" opacity="0.08" filter="url(#glow)"/>
<circle cx="444.0" cy="271.2" r="0.6" fill="#FFD37E" opacity="0.30" filter="url(#glow)"/>
<circle cx="291.5" cy="226.4" r="1.1" fill="#FFD37E" opacity="0.13" filter="url(#glow)"/>
<circle cx="166.6" cy="354.6" r="1.5" fill="#4A3F7A" opacity="0.20" filter="url(#glow)"/>
<circle cx="582.1" cy="71.7" r="1.5" fill="#4A3F7A" opacity="0.10" filter="url(#glow)"/>
</svg>