<svg width="18" height="8" viewBox="0 0 18 8" fill="none" xmlns="http://www.w3.org/2000/svg">
<path d="M3.83726 0H0C0 1.49347 0 5.9736 0.21799 6.544C0.40973 7.04573 0.71569 7.45373 1.09202 7.70933C1.51984 8 2.07989 8 3.2 8H14.8C15.9201 8 16.4802 8 16.908 7.70933C17.2843 7.45373 17.5903 7.04573 17.782 6.544C18 5.9736 18 1.49347 18 0H14.1627C13.9182 0 13.7959 0 13.6808 0.0368005C13.5787 0.0694672 13.4812 0.123333 13.3917 0.196533C13.2908 0.278933 13.2043 0.394266 13.0314 0.6248L12.4373 1.41693L12.4373 1.41695C12.0914 1.87814 11.9184 2.1088 11.7166 2.27373C11.5376 2.41987 11.3425 2.5276 11.1385 2.59293C10.9083 2.66667 10.6637 2.66667 10.1745 2.66667H7.8255H7.82549C7.3363 2.66667 7.0917 2.66667 6.86154 2.59293C6.65746 2.5276 6.46237 2.41987 6.28343 2.27373C6.08174 2.10892 5.9089 1.87846 5.56348 1.41792L5.56274 1.41693L4.96863 0.6248L4.96803 0.624002C4.79548 0.394 4.70908 0.278838 4.60828 0.196533C4.51881 0.123333 4.42127 0.0694672 4.31923 0.0368005C4.20414 0 4.08185 0 3.83726 0Z" fill="#FF6FB5"/>
</svg>
