<svg width="30" height="27" viewBox="0 0 30 27" fill="none" xmlns="http://www.w3.org/2000/svg">
<rect x="0.5" y="0.5" width="29" height="26" rx="7.5" fill="url(#paint0_linear_66_1735)" fill-opacity="0.9"/>
<rect x="0.5" y="0.5" width="29" height="26" rx="7.5" stroke="#FFD37E"/>
<path d="M9.61749 17V16.3608L12.0181 13.733C12.2998 13.4252 12.5318 13.1577 12.7141 12.9304C12.8964 12.7008 13.0313 12.4853 13.1189 12.2841C13.2089 12.0805 13.2539 11.8674 13.2539 11.6449C13.2539 11.3892 13.1923 11.1679 13.0692 10.9808C12.9485 10.7938 12.7827 10.6494 12.572 10.5476C12.3613 10.4458 12.1246 10.3949 11.8618 10.3949C11.5825 10.3949 11.3386 10.4529 11.1303 10.5689C10.9243 10.6825 10.7645 10.8423 10.6509 11.0483C10.5396 11.2543 10.484 11.4957 10.484 11.7727H9.6459C9.6459 11.3466 9.74415 10.9725 9.94064 10.6506C10.1371 10.3286 10.4047 10.0777 10.7432 9.89773C11.0841 9.7178 11.4664 9.62784 11.8902 9.62784C12.3164 9.62784 12.694 9.7178 13.023 9.89773C13.3521 10.0777 13.6102 10.3203 13.7972 10.6257C13.9842 10.9311 14.0777 11.2708 14.0777 11.6449C14.0777 11.9124 14.0292 12.174 13.9321 12.4297C13.8374 12.683 13.6717 12.9659 13.435 13.2784C13.2006 13.5885 12.8751 13.9673 12.4584 14.4148L10.8249 16.1619V16.2188H14.2056V17H9.61749ZM16.0262 9.72727L17.9012 12.7528H17.958L19.833 9.72727H20.8699L18.583 13.3636L20.8699 17H19.833L17.958 14.0312H17.9012L16.0262 17H14.9892L17.333 13.3636L14.9892 9.72727H16.0262Z" fill="#1C1C1C"/>
<defs>
<linearGradient id="paint0_linear_66_1735" x1="15" y1="0" x2="15" y2="27" gradientUnits="userSpaceOnUse">
<stop stop-color="#FF6FB5"/>
<stop offset="1" stop-color="#99436D"/>
</linearGradient>
</defs>
</svg>
